<svg width="0" height="0" class="hidden">
  <symbol fill="none" xmlns="http://www.w3.org/2000/svg" viewBox="0 0 24 24" id="close">
    <path d="M6.22566 4.81096C5.83514 4.42044 5.20197 4.42044 4.81145 4.81096C4.42092 5.20148 4.42092 5.83465 4.81145 6.22517L10.5862 11.9999L4.81151 17.7746C4.42098 18.1651 4.42098 18.7983 4.81151 19.1888C5.20203 19.5793 5.8352 19.5793 6.22572 19.1888L12.0004 13.4141L17.7751 19.1888C18.1656 19.5793 18.7988 19.5793 19.1893 19.1888C19.5798 18.7983 19.5798 18.1651 19.1893 17.7746L13.4146 11.9999L19.1893 6.22517C19.5799 5.83465 19.5799 5.20148 19.1893 4.81096C18.7988 4.42044 18.1657 4.42044 17.7751 4.81096L12.0004 10.5857L6.22566 4.81096Z" fill="hsla(0, 0%, 50%, .3)"></path>
  </symbol>
  <symbol fill="none" xmlns="http://www.w3.org/2000/svg" viewBox="0 0 24 24" id="code-slash">
    <path d="M13.3252 3.05011L8.66765 20.4323L10.5995 20.9499L15.257 3.56775L13.3252 3.05011Z" fill="hsla(0, 0%, 50%, .3)"></path>
    <path d="M7.61222 18.3608L8.97161 16.9124L8.9711 16.8933L3.87681 12.1121L8.66724 7.00798L7.20892 5.63928L1.0498 12.2017L7.61222 18.3608Z" fill="hsla(0, 0%, 50%, .3)"></path>
    <path d="M16.3883 18.3608L15.0289 16.9124L15.0294 16.8933L20.1237 12.1121L15.3333 7.00798L16.7916 5.63928L22.9507 12.2017L16.3883 18.3608Z" fill="hsla(0, 0%, 50%, .3)"></path>
  </symbol>
  <symbol fill="none" xmlns="http://www.w3.org/2000/svg" viewBox="0 0 24 24" id="extension">
    <path fill-rule="evenodd" clip-rule="evenodd" d="M13 3H21V11H13V3ZM15 5H19V9H15V5Z" fill="hsla(0, 0%, 50%, .3)"></path>
    <path fill-rule="evenodd" clip-rule="evenodd" d="M17 21V13H11V7H3V21H17ZM9 9H5V13H9V9ZM5 19L5 15H9V19H5ZM11 19V15H15V19H11Z" fill="hsla(0, 0%, 50%, .3)"></path>
  </symbol>
  <symbol fill="none" xmlns="http://www.w3.org/2000/svg" viewBox="0 0 24 24" id="file">
    <path fill-rule="evenodd" clip-rule="evenodd" d="M3 5C3 3.34315 4.34315 2 6 2H14C17.866 2 21 5.13401 21 9V19C21 20.6569 19.6569 22 18 22H6C4.34315 22 3 20.6569 3 19V5ZM13 4H6C5.44772 4 5 4.44772 5 5V19C5 19.5523 5.44772 20 6 20H18C18.5523 20 19 19.5523 19 19V9H13V4ZM18.584 7C17.9413 5.52906 16.6113 4.4271 15 4.10002V7H18.584Z" fill="hsla(0, 0%, 50%, .3)"></path>
  </symbol>
  <symbol fill="none" xmlns="http://www.w3.org/2000/svg" viewBox="0 0 24 24" id="git-fork">
    <path d="M7 5C7 3.89543 7.89543 3 9 3C10.1046 3 11 3.89543 11 5C11 5.74028 10.5978 6.38663 10 6.73244V14.0396H11.7915C12.8961 14.0396 13.7915 13.1441 13.7915 12.0396V10.7838C13.1823 10.4411 12.7708 9.78837 12.7708 9.03955C12.7708 7.93498 13.6662 7.03955 14.7708 7.03955C15.8753 7.03955 16.7708 7.93498 16.7708 9.03955C16.7708 9.77123 16.3778 10.4111 15.7915 10.7598V12.0396C15.7915 14.2487 14.0006 16.0396 11.7915 16.0396H10V17.2676C10.5978 17.6134 11 18.2597 11 19C11 20.1046 10.1046 21 9 21C7.89543 21 7 20.1046 7 19C7 18.2597 7.4022 17.6134 8 17.2676V6.73244C7.4022 6.38663 7 5.74028 7 5Z" fill="hsla(0, 0%, 50%, .3)"></path>
  </symbol>
  <symbol fill="none" xmlns="http://www.w3.org/2000/svg" viewBox="0 0 24 24" id="options">
    <path fill-rule="evenodd" clip-rule="evenodd" d="M7 3C8.86384 3 10.4299 4.27477 10.874 6H19V8H10.874C10.4299 9.72523 8.86384 11 7 11C4.79086 11 3 9.20914 3 7C3 4.79086 4.79086 3 7 3ZM7 9C8.10457 9 9 8.10457 9 7C9 5.89543 8.10457 5 7 5C5.89543 5 5 5.89543 5 7C5 8.10457 5.89543 9 7 9Z" fill="hsla(0, 0%, 50%, .3)"></path>
    <path fill-rule="evenodd" clip-rule="evenodd" d="M17 20C15.1362 20 13.5701 18.7252 13.126 17H5V15H13.126C13.5701 13.2748 15.1362 12 17 12C19.2091 12 21 13.7909 21 16C21 18.2091 19.2091 20 17 20ZM17 18C18.1046 18 19 17.1046 19 16C19 14.8954 18.1046 14 17 14C15.8954 14 15 14.8954 15 16C15 17.1046 15.8954 18 17 18Z" fill="hsla(0, 0%, 50%, .3)"></path>
  </symbol>
  <symbol fill="none" xmlns="http://www.w3.org/2000/svg" viewBox="0 0 24 24" id="search">
    <path fill-rule="evenodd" clip-rule="evenodd" d="M18.319 14.4326C20.7628 11.2941 20.542 6.75347 17.6569 3.86829C14.5327 0.744098 9.46734 0.744098 6.34315 3.86829C3.21895 6.99249 3.21895 12.0578 6.34315 15.182C9.22833 18.0672 13.769 18.2879 16.9075 15.8442C16.921 15.8595 16.9351 15.8745 16.9497 15.8891L21.1924 20.1317C21.5829 20.5223 22.2161 20.5223 22.6066 20.1317C22.9971 19.7412 22.9971 19.1081 22.6066 18.7175L18.364 14.4749C18.3493 14.4603 18.3343 14.4462 18.319 14.4326ZM16.2426 5.28251C18.5858 7.62565 18.5858 11.4246 16.2426 13.7678C13.8995 16.1109 10.1005 16.1109 7.75736 13.7678C5.41421 11.4246 5.41421 7.62565 7.75736 5.28251C10.1005 2.93936 13.8995 2.93936 16.2426 5.28251Z" fill="hsla(0, 0%, 50%, .3)"></path>
  </symbol>
  <symbol id="user" fill="none" xmlns="http://www.w3.org/2000/svg" viewBox="0 0 24 24">
    <path fill-rule="evenodd" clip-rule="evenodd" d="M16 7C16 9.20914 14.2091 11 12 11C9.79086 11 8 9.20914 8 7C8 4.79086 9.79086 3 12 3C14.2091 3 16 4.79086 16 7ZM14 7C14 8.10457 13.1046 9 12 9C10.8954 9 10 8.10457 10 7C10 5.89543 10.8954 5 12 5C13.1046 5 14 5.89543 14 7Z" fill="hsla(0, 0%, 50%, .3)"></path>
    <path d="M16 15C16 14.4477 15.5523 14 15 14H9C8.44772 14 8 14.4477 8 15V21H6V15C6 13.3431 7.34315 12 9 12H15C16.6569 12 18 13.3431 18 15V21H16V15Z" fill="hsla(0, 0%, 50%, .3)"></path>
  </symbol>
    <symbol xmlns="http://www.w3.org/2000/svg" viewBox="0 0 24 24" id="arrow-left">
    <path d="M20.3287 11.0002V13.0002L7.50042 13.0002L10.7429 16.2428L9.32873 17.657L3.67188 12.0001L9.32873 6.34326L10.7429 7.75747L7.50019 11.0002L20.3287 11.0002Z"></path>
  </symbol>
  <symbol xmlns="http://www.w3.org/2000/svg" viewBox="0 0 24 24" id="arrow-right">
    <path d="M15.0377 6.34326L13.6268 7.76078L16.897 11.0157L3.29199 11.0294L3.294 13.0294L16.8618 13.0158L13.6466 16.246L15.0641 17.6569L20.7078 11.9869L15.0377 6.34326Z"></path>
  </symbol>
  <symbol xmlns="http://www.w3.org/2000/svg" id="refresh" x="0" y="0" version="1.1" xml:space="preserve" viewBox="0 0 29 29">
    <path d="M13.25 25.5c-6.065 0-11-4.935-11-11s4.935-11 11-11 11 4.935 11 11a1 1 0 1 1-2 0c0-4.963-4.037-9-9-9s-9 4.037-9 9 4.037 9 9 9a9.067 9.067 0 0 0 6.364-2.636.999.999 0 1 1 1.414 1.414A11.078 11.078 0 0 1 13.25 25.5z"></path>
    <path d="M21.161 12.335h4.177a.41.41 0 0 1 .353.621l-2.089 3.509a.41.41 0 0 1-.706 0l-2.089-3.509a.412.412 0 0 1 .354-.621z"></path>
  </symbol>
</svg>