<svg width="0" height="0" class="hidden">
  <symbol fill="none" xmlns="http://www.w3.org/2000/svg" viewBox="0 0 24 24" id="close">
    <path
      d="M6.22566 4.81096C5.83514 4.42044 5.20197 4.42044 4.81145 4.81096C4.42092 5.20148 4.42092 5.83465 4.81145 6.22517L10.5862 11.9999L4.81151 17.7746C4.42098 18.1651 4.42098 18.7983 4.81151 19.1888C5.20203 19.5793 5.8352 19.5793 6.22572 19.1888L12.0004 13.4141L17.7751 19.1888C18.1656 19.5793 18.7988 19.5793 19.1893 19.1888C19.5798 18.7983 19.5798 18.1651 19.1893 17.7746L13.4146 11.9999L19.1893 6.22517C19.5799 5.83465 19.5799 5.20148 19.1893 4.81096C18.7988 4.42044 18.1657 4.42044 17.7751 4.81096L12.0004 10.5857L6.22566 4.81096Z"
      fill="hsla(0, 0%, 50%, .3)"></path>
  </symbol>
  <symbol fill="none" xmlns="http://www.w3.org/2000/svg" viewBox="0 0 24 24" id="code-slash">
    <path d="M13.3252 3.05011L8.66765 20.4323L10.5995 20.9499L15.257 3.56775L13.3252 3.05011Z"
      fill="hsla(0, 0%, 50%, .3)"></path>
    <path
      d="M7.61222 18.3608L8.97161 16.9124L8.9711 16.8933L3.87681 12.1121L8.66724 7.00798L7.20892 5.63928L1.0498 12.2017L7.61222 18.3608Z"
      fill="hsla(0, 0%, 50%, .3)"></path>
    <path
      d="M16.3883 18.3608L15.0289 16.9124L15.0294 16.8933L20.1237 12.1121L15.3333 7.00798L16.7916 5.63928L22.9507 12.2017L16.3883 18.3608Z"
      fill="hsla(0, 0%, 50%, .3)"></path>
  </symbol>
  <symbol fill="none" xmlns="http://www.w3.org/2000/svg" viewBox="0 0 24 24" id="extension">
    <path fill-rule="evenodd" clip-rule="evenodd" d="M13 3H21V11H13V3ZM15 5H19V9H15V5Z" fill="hsla(0, 0%, 50%, .3)">
    </path>
    <path fill-rule="evenodd" clip-rule="evenodd"
      d="M17 21V13H11V7H3V21H17ZM9 9H5V13H9V9ZM5 19L5 15H9V19H5ZM11 19V15H15V19H11Z" fill="hsla(0, 0%, 50%, .3)"></path>
  </symbol>
  <symbol fill="none" xmlns="http://www.w3.org/2000/svg" viewBox="0 0 24 24" id="file">
    <path fill-rule="evenodd" clip-rule="evenodd"
      d="M3 5C3 3.34315 4.34315 2 6 2H14C17.866 2 21 5.13401 21 9V19C21 20.6569 19.6569 22 18 22H6C4.34315 22 3 20.6569 3 19V5ZM13 4H6C5.44772 4 5 4.44772 5 5V19C5 19.5523 5.44772 20 6 20H18C18.5523 20 19 19.5523 19 19V9H13V4ZM18.584 7C17.9413 5.52906 16.6113 4.4271 15 4.10002V7H18.584Z"
      fill="hsla(0, 0%, 50%, .3)"></path>
  </symbol>
  <symbol fill="none" xmlns="http://www.w3.org/2000/svg" viewBox="0 0 24 24" id="git-fork">
    <path
      d="M7 5C7 3.89543 7.89543 3 9 3C10.1046 3 11 3.89543 11 5C11 5.74028 10.5978 6.38663 10 6.73244V14.0396H11.7915C12.8961 14.0396 13.7915 13.1441 13.7915 12.0396V10.7838C13.1823 10.4411 12.7708 9.78837 12.7708 9.03955C12.7708 7.93498 13.6662 7.03955 14.7708 7.03955C15.8753 7.03955 16.7708 7.93498 16.7708 9.03955C16.7708 9.77123 16.3778 10.4111 15.7915 10.7598V12.0396C15.7915 14.2487 14.0006 16.0396 11.7915 16.0396H10V17.2676C10.5978 17.6134 11 18.2597 11 19C11 20.1046 10.1046 21 9 21C7.89543 21 7 20.1046 7 19C7 18.2597 7.4022 17.6134 8 17.2676V6.73244C7.4022 6.38663 7 5.74028 7 5Z"
      fill="hsla(0, 0%, 50%, .3)"></path>
  </symbol>
  <symbol fill="none" xmlns="http://www.w3.org/2000/svg" viewBox="0 0 24 24" id="options">
    <path fill-rule="evenodd" clip-rule="evenodd"
      d="M7 3C8.86384 3 10.4299 4.27477 10.874 6H19V8H10.874C10.4299 9.72523 8.86384 11 7 11C4.79086 11 3 9.20914 3 7C3 4.79086 4.79086 3 7 3ZM7 9C8.10457 9 9 8.10457 9 7C9 5.89543 8.10457 5 7 5C5.89543 5 5 5.89543 5 7C5 8.10457 5.89543 9 7 9Z"
      fill="hsla(0, 0%, 50%, .3)"></path>
    <path fill-rule="evenodd" clip-rule="evenodd"
      d="M17 20C15.1362 20 13.5701 18.7252 13.126 17H5V15H13.126C13.5701 13.2748 15.1362 12 17 12C19.2091 12 21 13.7909 21 16C21 18.2091 19.2091 20 17 20ZM17 18C18.1046 18 19 17.1046 19 16C19 14.8954 18.1046 14 17 14C15.8954 14 15 14.8954 15 16C15 17.1046 15.8954 18 17 18Z"
      fill="hsla(0, 0%, 50%, .3)"></path>
  </symbol>
  <symbol fill="none" xmlns="http://www.w3.org/2000/svg" viewBox="0 0 24 24" id="search">
    <path fill-rule="evenodd" clip-rule="evenodd"
      d="M18.319 14.4326C20.7628 11.2941 20.542 6.75347 17.6569 3.86829C14.5327 0.744098 9.46734 0.744098 6.34315 3.86829C3.21895 6.99249 3.21895 12.0578 6.34315 15.182C9.22833 18.0672 13.769 18.2879 16.9075 15.8442C16.921 15.8595 16.9351 15.8745 16.9497 15.8891L21.1924 20.1317C21.5829 20.5223 22.2161 20.5223 22.6066 20.1317C22.9971 19.7412 22.9971 19.1081 22.6066 18.7175L18.364 14.4749C18.3493 14.4603 18.3343 14.4462 18.319 14.4326ZM16.2426 5.28251C18.5858 7.62565 18.5858 11.4246 16.2426 13.7678C13.8995 16.1109 10.1005 16.1109 7.75736 13.7678C5.41421 11.4246 5.41421 7.62565 7.75736 5.28251C10.1005 2.93936 13.8995 2.93936 16.2426 5.28251Z"
      fill="hsla(0, 0%, 50%, .3)"></path>
  </symbol>
  <symbol id="user" fill="none" xmlns="http://www.w3.org/2000/svg" viewBox="0 0 24 24">
    <path fill-rule="evenodd" clip-rule="evenodd"
      d="M16 7C16 9.20914 14.2091 11 12 11C9.79086 11 8 9.20914 8 7C8 4.79086 9.79086 3 12 3C14.2091 3 16 4.79086 16 7ZM14 7C14 8.10457 13.1046 9 12 9C10.8954 9 10 8.10457 10 7C10 5.89543 10.8954 5 12 5C13.1046 5 14 5.89543 14 7Z"
      fill="hsla(0, 0%, 50%, .3)"></path>
    <path
      d="M16 15C16 14.4477 15.5523 14 15 14H9C8.44772 14 8 14.4477 8 15V21H6V15C6 13.3431 7.34315 12 9 12H15C16.6569 12 18 13.3431 18 15V21H16V15Z"
      fill="hsla(0, 0%, 50%, .3)"></path>
  </symbol>
  <symbol xmlns="http://www.w3.org/2000/svg" viewBox="0 0 24 24" id="arrow-left">
    <path
      d="M20.3287 11.0002V13.0002L7.50042 13.0002L10.7429 16.2428L9.32873 17.657L3.67188 12.0001L9.32873 6.34326L10.7429 7.75747L7.50019 11.0002L20.3287 11.0002Z">
    </path>
  </symbol>
  <symbol xmlns="http://www.w3.org/2000/svg" viewBox="0 0 24 24" id="arrow-right">
    <path
      d="M15.0377 6.34326L13.6268 7.76078L16.897 11.0157L3.29199 11.0294L3.294 13.0294L16.8618 13.0158L13.6466 16.246L15.0641 17.6569L20.7078 11.9869L15.0377 6.34326Z">
    </path>
  </symbol>
  <symbol xmlns="http://www.w3.org/2000/svg" id="refresh" x="0" y="0" version="1.1" xml:space="preserve"
    viewBox="0 0 29 29">
    <path
      d="M13.25 25.5c-6.065 0-11-4.935-11-11s4.935-11 11-11 11 4.935 11 11a1 1 0 1 1-2 0c0-4.963-4.037-9-9-9s-9 4.037-9 9 4.037 9 9 9a9.067 9.067 0 0 0 6.364-2.636.999.999 0 1 1 1.414 1.414A11.078 11.078 0 0 1 13.25 25.5z">
    </path>
    <path
      d="M21.161 12.335h4.177a.41.41 0 0 1 .353.621l-2.089 3.509a.41.41 0 0 1-.706 0l-2.089-3.509a.412.412 0 0 1 .354-.621z">
    </path>
  </symbol>
  <symbol xmlns="http://www.w3.org/2000/svg" viewBox="0 0 64 64" id="icons8-github">
    <path
      d="M32 6C17.641 6 6 17.641 6 32c0 12.277 8.512 22.56 19.955 25.286-.592-.141-1.179-.299-1.755-.479V50.85c0 0-.975.325-2.275.325-3.637 0-5.148-3.245-5.525-4.875-.229-.993-.827-1.934-1.469-2.509-.767-.684-1.126-.686-1.131-.92-.01-.491.658-.471.975-.471 1.625 0 2.857 1.729 3.429 2.623 1.417 2.207 2.938 2.577 3.721 2.577.975 0 1.817-.146 2.397-.426.268-1.888 1.108-3.57 2.478-4.774-6.097-1.219-10.4-4.716-10.4-10.4 0-2.928 1.175-5.619 3.133-7.792C19.333 23.641 19 22.494 19 20.625c0-1.235.086-2.751.65-4.225 0 0 3.708.026 7.205 3.338C28.469 19.268 30.196 19 32 19s3.531.268 5.145.738c3.497-3.312 7.205-3.338 7.205-3.338.567 1.474.65 2.99.65 4.225 0 2.015-.268 3.19-.432 3.697C46.466 26.475 47.6 29.124 47.6 32c0 5.684-4.303 9.181-10.4 10.4 1.628 1.43 2.6 3.513 2.6 5.85v8.557c-.576.181-1.162.338-1.755.479C49.488 54.56 58 44.277 58 32 58 17.641 46.359 6 32 6zM33.813 57.93C33.214 57.972 32.61 58 32 58 32.61 58 33.213 57.971 33.813 57.93zM37.786 57.346c-1.164.265-2.357.451-3.575.554C35.429 57.797 36.622 57.61 37.786 57.346zM32 58c-.61 0-1.214-.028-1.813-.07C30.787 57.971 31.39 58 32 58zM29.788 57.9c-1.217-.103-2.411-.289-3.574-.554C27.378 57.61 28.571 57.797 29.788 57.9z">
    </path>
  </symbol>
  <symbol xmlns="http://www.w3.org/2000/svg" viewBox="0 0 50 50" id="icons8-gmail-logo">
    <path
      d="M 5.5 7 C 3.019531 7 1 9.019531 1 11.5 L 1 11.925781 L 25 29 L 49 11.925781 L 49 11.5 C 49 9.019531 46.980469 7 44.5 7 Z M 6.351563 9 L 43.644531 9 L 25 22 Z M 1 14.027344 L 1 38.5 C 1 40.980469 3.019531 43 5.5 43 L 44.5 43 C 46.980469 43 49 40.980469 49 38.5 L 49 14.027344 L 43 18.296875 L 43 41 L 7 41 L 7 18.296875 Z">
    </path>
  </symbol>
  <symbol xmlns="http://www.w3.org/2000/svg" viewBox="0 0 50 50" id="icons8-linkedin">
    <path
      d="M41,4H9C6.24,4,4,6.24,4,9v32c0,2.76,2.24,5,5,5h32c2.76,0,5-2.24,5-5V9C46,6.24,43.76,4,41,4z M17,20v19h-6V20H17z M11,14.47c0-1.4,1.2-2.47,3-2.47s2.93,1.07,3,2.47c0,1.4-1.12,2.53-3,2.53C12.2,17,11,15.87,11,14.47z M39,39h-6c0,0,0-9.26,0-10 c0-2-1-4-3.5-4.04h-0.08C27,24.96,26,27.02,26,29c0,0.91,0,10,0,10h-6V20h6v2.56c0,0,1.93-2.56,5.81-2.56 c3.97,0,7.19,2.73,7.19,8.26V39z">
    </path>
  </symbol>
  <symbol xmlns="http://www.w3.org/2000/svg" viewBox="0 0 50 50" id="icons8-twitter">
    <path
      d="M 50.0625 10.4375 C 48.214844 11.257813 46.234375 11.808594 44.152344 12.058594 C 46.277344 10.785156 47.910156 8.769531 48.675781 6.371094 C 46.691406 7.546875 44.484375 8.402344 42.144531 8.863281 C 40.269531 6.863281 37.597656 5.617188 34.640625 5.617188 C 28.960938 5.617188 24.355469 10.21875 24.355469 15.898438 C 24.355469 16.703125 24.449219 17.488281 24.625 18.242188 C 16.078125 17.8125 8.503906 13.71875 3.429688 7.496094 C 2.542969 9.019531 2.039063 10.785156 2.039063 12.667969 C 2.039063 16.234375 3.851563 19.382813 6.613281 21.230469 C 4.925781 21.175781 3.339844 20.710938 1.953125 19.941406 C 1.953125 19.984375 1.953125 20.027344 1.953125 20.070313 C 1.953125 25.054688 5.5 29.207031 10.199219 30.15625 C 9.339844 30.390625 8.429688 30.515625 7.492188 30.515625 C 6.828125 30.515625 6.183594 30.453125 5.554688 30.328125 C 6.867188 34.410156 10.664063 37.390625 15.160156 37.472656 C 11.644531 40.230469 7.210938 41.871094 2.390625 41.871094 C 1.558594 41.871094 0.742188 41.824219 -0.0585938 41.726563 C 4.488281 44.648438 9.894531 46.347656 15.703125 46.347656 C 34.617188 46.347656 44.960938 30.679688 44.960938 17.09375 C 44.960938 16.648438 44.949219 16.199219 44.933594 15.761719 C 46.941406 14.3125 48.683594 12.5 50.0625 10.4375 Z">
    </path>
  </symbol>
  <symbol xmlns="http://www.w3.org/2000/svg" fill-rule="evenodd" viewBox="0 0 50 50" id="icons8-css3">
    <path fill-rule="evenodd"
      d="M 42 6 L 39 40 L 25 44 L 11 40 L 8 6 Z M 16.800781 28 L 20.800781 28 L 20.898438 30.5 L 25 31.898438 L 29.101563 30.5 L 29.398438 26 L 20.601563 26 L 20.398438 22 L 29.601563 22 L 29.898438 18 L 16.101563 18 L 15.800781 14 L 34.101563 14 L 33.601563 22 L 32.898438 33.5 L 25 36.101563 L 17.101563 33.5 Z">
    </path>
  </symbol>
  <symbol xmlns="http://www.w3.org/2000/svg" viewBox="0 0 50 50" id="icons8-html-5">
    <path
      d="M 45.273438 2.324219 C 45.085938 2.117188 44.816406 2 44.535156 2 L 5.464844 2 C 5.183594 2 4.914063 2.117188 4.726563 2.324219 C 4.535156 2.53125 4.441406 2.808594 4.46875 3.089844 L 7.988281 42.515625 C 8.023438 42.929688 8.3125 43.273438 8.710938 43.390625 L 24.722656 47.960938 C 24.808594 47.988281 24.902344 48 24.996094 48 C 25.089844 48 25.179688 47.988281 25.269531 47.960938 L 41.292969 43.390625 C 41.691406 43.273438 41.976563 42.929688 42.015625 42.515625 L 45.53125 3.089844 C 45.558594 2.808594 45.464844 2.53125 45.273438 2.324219 Z M 36.847656 15.917969 L 18.035156 15.917969 L 18.484375 21.007813 L 36.394531 21.007813 L 35.050781 36.050781 L 24.992188 39.089844 L 24.894531 39.058594 L 14.953125 36.046875 L 14.410156 29.917969 L 19.28125 29.917969 L 19.492188 32.296875 L 25.050781 33.460938 L 30.507813 32.296875 L 31.089844 25.859375 L 14.046875 25.859375 L 12.722656 11.054688 L 37.28125 11.054688 Z">
    </path>
  </symbol>
  <symbol xmlns="http://www.w3.org/2000/svg" viewBox="0 0 50 50" id="icons8-javascript-logo">
    <path
      d="M45.274,2.325C45.084,2.118,44.817,2,44.536,2H5.464C5.183,2,4.916,2.118,4.726,2.325S4.443,2.81,4.468,3.089l3.52,39.427 c0.037,0.412,0.324,0.759,0.722,0.873l16.01,4.573C24.809,47.987,24.902,48,24.994,48s0.185-0.013,0.274-0.038l16.024-4.573 c0.398-0.114,0.685-0.461,0.722-0.873l3.518-39.427C45.557,2.81,45.463,2.532,45.274,2.325z M12,29.004l7,1.942V11h4v26l-11-3.051 V29.004z M38.054,22L37,34.25L27,37v-4.601l6.75-1.855l0.25-3.75L27,28V11h12l-0.345,4H31v8L38.054,22z">
    </path>
  </symbol>
  <symbol xmlns="http://www.w3.org/2000/svg" fill-rule="evenodd" clip-rule="evenodd" viewBox="0 0 50 50"
    id="icons8-react-native">
    <path
      d="M 34.554688 3.984375 C 33.775003 3.9581582 32.958884 4.0940926 32.140625 4.359375 C 30.504109 4.889941 28.789203 5.9238848 27.029297 7.3554688 C 26.339589 7.9165071 25.643623 8.5578288 24.945312 9.2382812 C 24.262398 8.5751039 23.580733 7.9509974 22.90625 7.4023438 C 21.147758 5.9719089 19.4375 4.9375672 17.804688 4.4082031 C 16.171878 3.8788386 14.547223 3.8624356 13.212891 4.6328125 C 11.878558 5.4031893 11.080619 6.8173558 10.722656 8.4960938 C 10.364693 10.174832 10.404125 12.173992 10.763672 14.412109 C 10.888559 15.189511 11.066671 16.005078 11.269531 16.835938 C 10.507095 17.067004 9.7666767 17.309955 9.0800781 17.578125 C 7.0079817 18.387438 5.2934468 19.355663 4.0449219 20.507812 C 2.7963969 21.659962 1.9902344 23.058304 1.9902344 24.59375 C 1.9902344 26.129196 2.7963969 27.525585 4.0449219 28.677734 C 5.2934468 29.829884 7.0079817 30.800062 9.0800781 31.609375 C 9.8142516 31.896126 10.609118 32.154326 11.429688 32.398438 C 11.134531 33.501278 10.895394 34.571467 10.732422 35.585938 C 10.372587 37.825853 10.334588 39.825265 10.693359 41.507812 C 11.052134 43.19036 11.850478 44.612534 13.191406 45.386719 C 14.532336 46.160905 16.164264 46.141894 17.800781 45.611328 C 19.437297 45.080762 21.15025 44.048772 22.910156 42.617188 C 23.593512 42.061316 24.284757 41.427206 24.976562 40.753906 C 25.671996 41.431263 26.366006 42.068338 27.052734 42.626953 C 28.811227 44.057387 30.523438 45.089776 32.15625 45.619141 C 33.789061 46.148505 35.413715 46.164908 36.748047 45.394531 C 38.082379 44.624154 38.878366 43.209988 39.236328 41.53125 C 39.59429 39.852512 39.554857 37.855304 39.195312 35.617188 C 39.031899 34.599965 38.792614 33.526227 38.496094 32.419922 C 39.343769 32.169866 40.163744 31.904721 40.919922 31.609375 C 42.992018 30.800062 44.706553 29.829884 45.955078 28.677734 C 47.203603 27.525585 48.009766 26.129196 48.009766 24.59375 C 48.009766 23.058304 47.203603 21.659963 45.955078 20.507812 C 44.706553 19.355663 42.992018 18.387438 40.919922 17.578125 C 40.22347 17.306107 39.471688 17.059992 38.697266 16.826172 C 38.901775 15.990221 39.083345 15.168805 39.208984 14.386719 C 39.568819 12.146804 39.606825 10.145439 39.248047 8.4628906 C 38.889279 6.7803434 38.088976 5.3601244 36.748047 4.5859375 C 36.077582 4.1988452 35.334372 4.0105918 34.554688 3.984375 z M 34.462891 6.0195312 C 34.952154 6.03291 35.369535 6.1493386 35.726562 6.3554688 C 36.440618 6.7677287 36.968419 7.5700924 37.25 8.890625 C 37.531581 10.211156 37.521848 11.99533 37.189453 14.064453 C 37.075647 14.772878 36.910402 15.52369 36.722656 16.292969 C 34.677151 15.800695 32.435744 15.435401 30.046875 15.220703 C 28.847638 13.559329 27.615404 12.045781 26.373047 10.703125 C 27.030182 10.061662 27.683063 9.4617259 28.320312 8.9433594 C 29.946026 7.6209332 31.485126 6.7210962 32.769531 6.3046875 C 33.411734 6.0964824 33.973627 6.0061525 34.462891 6.0195312 z M 15.486328 6.0253906 C 15.978419 6.0116533 16.541491 6.1017415 17.185547 6.3105469 C 18.473657 6.7281576 20.015452 7.6275969 21.642578 8.9511719 C 22.267037 9.4591336 22.905298 10.047651 23.548828 10.673828 C 22.297283 12.027473 21.054862 13.55414 19.847656 15.230469 C 17.468889 15.449074 15.236606 15.81635 13.201172 16.310547 C 13.014826 15.545537 12.849558 14.798586 12.736328 14.09375 C 12.403642 12.02283 12.39534 10.238404 12.677734 8.9140625 C 12.960128 7.5897208 13.492238 6.7813032 14.212891 6.3652344 C 14.573216 6.1572002 14.994237 6.0391279 15.486328 6.0253906 z M 24.976562 12.142578 C 25.791172 13.029071 26.605956 13.99916 27.414062 15.042969 C 26.620033 15.009861 25.816288 14.990234 25 14.990234 C 24.167457 14.990234 23.34841 15.010498 22.539062 15.044922 C 23.347352 14.000306 24.16175 13.029737 24.976562 12.142578 z M 25 17.009766 C 26.359894 17.009766 27.685348 17.065647 28.974609 17.160156 C 29.86173 18.434311 30.728648 19.786055 31.554688 21.216797 C 32.280504 22.473948 32.937328 23.729163 33.535156 24.96875 C 32.931017 26.224782 32.263184 27.496972 31.527344 28.771484 C 30.879609 29.893393 30.20319 30.958949 29.515625 31.986328 C 28.059313 32.10805 26.550303 32.175781 25 32.175781 C 23.412375 32.175781 21.869462 32.104031 20.380859 31.976562 C 19.704742 30.963955 19.039735 29.91454 18.402344 28.810547 C 17.668186 27.538949 17.003577 26.269079 16.400391 25.015625 C 17.006106 23.755092 17.673701 22.47818 18.412109 21.199219 C 19.233818 19.775977 20.098207 18.432055 20.980469 17.164062 C 22.283609 17.067424 23.62445 17.009766 25 17.009766 z M 31.548828 17.410156 C 33.197299 17.615841 34.745083 17.901405 36.185547 18.244141 C 35.758129 19.645287 35.231654 21.108808 34.59375 22.619141 C 34.179567 21.820719 33.750599 21.019585 33.287109 20.216797 C 32.725422 19.243926 32.140408 18.316416 31.548828 17.410156 z M 18.34375 17.425781 C 17.764654 18.315097 17.194836 19.224578 16.644531 20.177734 C 16.175094 20.990823 15.737221 21.802736 15.318359 22.611328 C 14.68596 21.110075 14.162654 19.654877 13.738281 18.261719 C 15.168002 17.918363 16.706766 17.633813 18.34375 17.425781 z M 38.164062 18.775391 C 38.872944 18.989877 39.557566 19.21371 40.185547 19.458984 C 42.0957 20.205046 43.60665 21.088493 44.585938 21.992188 C 45.565224 22.895882 45.990234 23.757696 45.990234 24.59375 C 45.990234 25.429804 45.565225 26.291619 44.585938 27.195312 C 43.60665 28.099007 42.0957 28.982454 40.185547 29.728516 C 39.487698 30.001079 38.72096 30.248243 37.923828 30.482422 C 37.355199 28.723643 36.629408 26.888772 35.765625 25.015625 C 36.758785 22.865083 37.561088 20.768289 38.164062 18.775391 z M 11.802734 18.785156 C 12.398803 20.758169 13.190811 22.834118 14.169922 24.962891 C 13.30047 26.846955 12.571087 28.692254 12 30.460938 C 11.23096 30.232919 10.490212 29.992451 9.8144531 29.728516 C 7.9042995 28.982454 6.39335 28.099007 5.4140625 27.195312 C 4.434775 26.291618 4.0097656 25.429804 4.0097656 24.59375 C 4.0097656 23.757696 4.434775 22.895882 5.4140625 21.992188 C 6.39335 21.088493 7.9042995 20.205046 9.8144531 19.458984 C 10.432774 19.217483 11.105915 18.996837 11.802734 18.785156 z M 25 20 C 22.250421 20 20 22.250421 20 25 C 20 27.749579 22.250421 30 25 30 C 27.749579 30 30 27.749579 30 25 C 30 22.250421 27.749579 20 25 20 z M 15.341797 27.365234 C 15.762496 28.177853 16.200028 28.993283 16.671875 29.810547 C 17.041048 30.449973 17.418073 31.072393 17.800781 31.683594 C 16.457817 31.497372 15.181231 31.261605 13.982422 30.982422 C 14.363652 29.81481 14.819744 28.602796 15.341797 27.365234 z M 34.619141 27.365234 C 35.143284 28.605725 35.599609 29.819681 35.982422 30.990234 C 34.779808 31.269089 33.499292 31.504052 32.152344 31.689453 C 32.540071 31.070779 32.922982 30.44057 33.296875 29.792969 C 33.765252 28.981717 34.201083 28.171917 34.619141 27.365234 z M 13.40625 32.923828 C 15.216074 33.352568 17.177716 33.681912 19.257812 33.896484 C 20.64638 35.904859 22.092967 37.709497 23.548828 39.287109 C 22.897813 39.921859 22.252566 40.517583 21.621094 41.03125 C 19.99538 42.353677 18.454326 43.251559 17.169922 43.667969 C 15.885516 44.084378 14.926946 44.029446 14.212891 43.617188 C 13.498835 43.204927 12.972987 42.402563 12.691406 41.082031 C 12.409825 39.761499 12.417606 37.979279 12.75 35.910156 C 12.900793 34.971492 13.12615 33.966374 13.40625 32.923828 z M 36.560547 32.931641 C 36.842987 33.980548 37.069013 34.98935 37.220703 35.933594 C 37.553389 38.004513 37.56169 39.788939 37.279297 41.113281 C 36.996903 42.437623 36.468699 43.247993 35.748047 43.664062 C 35.027395 44.080132 34.059594 44.13441 32.771484 43.716797 C 31.483374 43.299186 29.941578 42.399747 28.314453 41.076172 C 27.678439 40.558811 27.028726 39.958258 26.373047 39.318359 C 27.838664 37.73459 29.295467 35.920758 30.693359 33.900391 C 32.778701 33.687251 34.745791 33.359875 36.560547 32.931641 z M 21.867188 34.101562 C 22.893951 34.157518 23.934244 34.195312 25 34.195312 C 26.030504 34.195312 27.037063 34.159787 28.03125 34.107422 C 27.014961 35.478593 25.979034 36.725149 24.947266 37.847656 C 23.916125 36.722751 22.882144 35.473968 21.867188 34.101562 z"
      clip-rule="evenodd" fill-rule="evenodd"></path>
  </symbol>
  <symbol version="1.1" xmlns="http://www.w3.org/2000/svg" xmlnsCc="http://creativecommons.org/ns#"
    xmlnsDc="http://purl.org/dc/elements/1.1/" xmlnsRdf="http://www.w3.org/1999/02/22-rdf-syntax-ns#"
    viewBox="0 0 24 24" id="terminal_icon">
    <g transform="translate(0 -1028.4)">
      <path
        d="m3 1030.4c-1.1046 0-2 0.9-2 2v7 2 7c0 1.1 0.8954 2 2 2h9 9c1.105 0 2-0.9 2-2v-7-2-7c0-1.1-0.895-2-2-2h-9-9z">
      </path>
      <path d="m3 1049.4c-1.1046 0-2-0.9-2-2v-7-2-3h22v3 2 7c0 1.1-0.895 2-2 2h-9-9z"></path>
      <path d="m4 1032.9v1.1l2 2.4-2 2.3v1.1l3-3.4-3-3.5z" fill="#ecf0f1"></path>
      <path d="m3 2c-1.1046 0-2 0.8954-2 2v7 2 3h22v-3-2-7c0-1.1046-0.895-2-2-2h-9-9z" transform="translate(0 1028.4)">
      </path>
      <path d="m4 5.125v1.125l3 1.75-3 1.75v1.125l5-2.875-5-2.875zm5 4.875v1h5v-1h-5z" fill="#ecf0f1"
        transform="translate(0 1028.4)"></path>
    </g>
  </symbol>
  <symbol xmlns="http://www.w3.org/2000/svg" viewBox="0 0 64 64" id="icons8-settings">
    <path
      d="M 28.291016 6 L 26.40625 11.759766 C 23.555212 12.546093 20.947841 13.915585 18.720703 15.736328 L 20.058594 12.828125 L 17.707031 11.548828 C 16.928031 11.125828 15.963891 11.265578 15.337891 11.892578 L 10.992188 16.236328 L 13.738281 21.654297 C 12.333118 24.129074 11.405235 26.910082 11.107422 29.880859 L 10 26.886719 L 7.4335938 27.646484 C 6.5835938 27.897484 6 28.678453 6 29.564453 L 6 35.708984 L 11.759766 37.59375 C 12.546093 40.444788 13.915585 43.052159 15.736328 45.279297 L 12.828125 43.941406 L 11.548828 46.292969 C 11.125828 47.071969 11.265578 48.036109 11.892578 48.662109 L 16.236328 53.007812 L 21.654297 50.261719 C 24.129074 51.666882 26.910082 52.594765 29.880859 52.892578 L 26.886719 54 L 27.646484 56.566406 C 27.897484 57.416406 28.678453 58 29.564453 58 L 35.708984 58 L 37.59375 52.240234 C 40.444788 51.453907 43.052159 50.084415 45.279297 48.263672 L 43.941406 51.171875 L 46.292969 52.451172 C 47.071969 52.874172 48.036109 52.734422 48.662109 52.107422 L 53.007812 47.763672 L 50.261719 42.345703 C 51.666882 39.870926 52.594765 37.089918 52.892578 34.119141 L 54 37.113281 L 56.566406 36.353516 C 57.416406 36.102516 58 35.321547 58 34.435547 L 58 28.291016 L 52.240234 26.40625 C 51.453907 23.555212 50.084415 20.947841 48.263672 18.720703 L 51.171875 20.058594 L 52.451172 17.707031 C 52.874172 16.928031 52.734422 15.963891 52.107422 15.337891 L 47.763672 10.992188 L 42.345703 13.738281 C 39.870926 12.333118 37.089918 11.405235 34.119141 11.107422 L 37.113281 10 L 36.353516 7.4335938 C 36.102516 6.5835938 35.321547 6 34.435547 6 L 28.291016 6 z M 32 16 C 40.837 16 48 23.163 48 32 C 48 40.836 40.837 48 32 48 C 23.163 48 16 40.836 16 32 C 16 23.163 23.163 16 32 16 z M 32 20 C 25.373 20 20 25.373 20 32 C 20 38.627 25.373 44 32 44 C 38.627 44 44 38.627 44 32 C 44 25.373 38.627 20 32 20 z M 32 28 C 34.209 28 36 29.791 36 32 C 36 34.209 34.209 36 32 36 C 29.791 36 28 34.209 28 32 C 28 29.791 29.791 28 32 28 z">
    </path>
  </symbol>
    <symbol xmlns="http://www.w3.org/2000/svg" viewBox="0 0 200 200" id="blob1">
    <path  d="M61.4,-42.1C69.4,-21.8,58.4,2.8,45,22.6C31.6,42.4,15.8,57.4,-0.3,57.6C-16.4,57.7,-32.7,43,-38.9,27.4C-45.1,11.8,-41,-4.8,-32.8,-25.3C-24.7,-45.8,-12.3,-70.3,7.2,-74.5C26.8,-78.7,53.5,-62.5,61.4,-42.1Z" transform="translate(100 100)"></path>
  </symbol>
</svg>